<svg width="45" height="52" viewBox="0 0 45 52" fill="none" xmlns="http://www.w3.org/2000/svg">
<path d="M15.5769 39.8667H13.8462V41.6H15.5769V39.8667ZM32.8846 39.8667V41.6H34.6154V39.8667H32.8846ZM17.3077 39.8667V38.1333H13.8462V39.8667H17.3077ZM31.1538 38.1333V39.8667H34.6154V38.1333H31.1538ZM32.8846 38.1333H15.5769V41.6H32.8846V38.1333ZM24.2308 31.2C26.0669 31.2 27.8278 31.9305 29.1261 33.2307C30.4245 34.531 31.1538 36.2945 31.1538 38.1333H34.6154C34.6154 35.3751 33.5213 32.7298 31.5738 30.7794C29.6263 28.829 26.9849 27.7333 24.2308 27.7333V31.2ZM17.3077 38.1333C17.3077 36.2945 18.0371 34.531 19.3354 33.2307C20.6337 31.9305 22.3947 31.2 24.2308 31.2V27.7333C21.4766 27.7333 18.8352 28.829 16.8877 30.7794C14.9402 32.7298 13.8462 35.3751 13.8462 38.1333H17.3077ZM24.2308 10.4C22.3947 10.4 20.6337 11.1305 19.3354 12.4307C18.0371 13.731 17.3077 15.4945 17.3077 17.3333H20.7692C20.7692 16.4139 21.1339 15.5322 21.7831 14.882C22.4323 14.2319 23.3127 13.8667 24.2308 13.8667V10.4ZM31.1538 17.3333C31.1538 15.4945 30.4245 13.731 29.1261 12.4307C27.8278 11.1305 26.0669 10.4 24.2308 10.4V13.8667C25.1488 13.8667 26.0293 14.2319 26.6784 14.882C27.3276 15.5322 27.6923 16.4139 27.6923 17.3333H31.1538ZM24.2308 24.2667C26.0669 24.2667 27.8278 23.5362 29.1261 22.2359C30.4245 20.9357 31.1538 19.1722 31.1538 17.3333H27.6923C27.6923 18.2528 27.3276 19.1345 26.6784 19.7846C26.0293 20.4348 25.1488 20.8 24.2308 20.8V24.2667ZM24.2308 20.8C23.3127 20.8 22.4323 20.4348 21.7831 19.7846C21.1339 19.1345 20.7692 18.2528 20.7692 17.3333H17.3077C17.3077 19.1722 18.0371 20.9357 19.3354 22.2359C20.6337 23.5362 22.3947 24.2667 24.2308 24.2667V20.8ZM8.65385 3.46667H39.8077V0H8.65385V3.46667ZM41.5385 5.2V46.8H45V5.2H41.5385ZM39.8077 48.5333H8.65385V52H39.8077V48.5333ZM6.92308 46.8V5.2H3.46154V46.8H6.92308ZM8.65385 48.5333C8.19482 48.5333 7.75459 48.3507 7.43001 48.0257C7.10543 47.7006 6.92308 47.2597 6.92308 46.8H3.46154C3.46154 48.1791 4.00858 49.5018 4.98233 50.477C5.95608 51.4521 7.27676 52 8.65385 52V48.5333ZM41.5385 46.8C41.5385 47.2597 41.3561 47.7006 41.0315 48.0257C40.707 48.3507 40.2667 48.5333 39.8077 48.5333V52C41.1848 52 42.5055 51.4521 43.4792 50.477C44.453 49.5018 45 48.1791 45 46.8H41.5385ZM39.8077 3.46667C40.2667 3.46667 40.707 3.64929 41.0315 3.97435C41.3561 4.29941 41.5385 4.74029 41.5385 5.2H45C45 3.82087 44.453 2.49823 43.4792 1.52304C42.5055 0.547856 41.1848 0 39.8077 0V3.46667ZM8.65385 0C7.27676 0 5.95608 0.547856 4.98233 1.52304C4.00858 2.49823 3.46154 3.82087 3.46154 5.2H6.92308C6.92308 4.74029 7.10543 4.29941 7.43001 3.97435C7.75459 3.64929 8.19482 3.46667 8.65385 3.46667V0ZM10.3846 13.8667H0V17.3333H10.3846V13.8667ZM10.3846 34.6667H0V38.1333H10.3846V34.6667Z" fill="#FF9C41"/>
</svg>
