<svg width="53" height="39" viewBox="0 0 53 39" fill="none" xmlns="http://www.w3.org/2000/svg">
<path d="M14.2509 19.549C16.8818 19.549 19.0146 17.4162 19.0146 14.7854C19.0146 12.1545 16.8818 10.0217 14.2509 10.0217C11.6201 10.0217 9.4873 12.1545 9.4873 14.7854C9.4873 17.4162 11.6201 19.549 14.2509 19.549Z" stroke="#FF9C41" stroke-width="2" stroke-linecap="round" stroke-linejoin="round"/>
<path d="M32.7956 13.9337H42.1531M32.7956 23.1214H42.1531M32.7956 18.5275H45.7255M8.22077 27.631H21.3004C21.5361 27.6316 21.767 27.5646 21.9657 27.4377C22.1644 27.3109 22.3224 27.1296 22.421 26.9155C22.5196 26.7014 22.5546 26.4635 22.5219 26.23C22.4891 25.9966 22.39 25.7775 22.2362 25.5988C21.3377 24.4802 20.1996 23.5774 18.9057 22.9572C17.6119 22.3369 16.1954 22.0149 14.7606 22.0149C13.3257 22.0149 11.9092 22.3369 10.6154 22.9572C9.32156 23.5774 8.18343 24.4802 7.28489 25.5988C7.13116 25.7775 7.03201 25.9966 6.99924 26.23C6.96648 26.4635 7.00148 26.7014 7.10009 26.9155C7.19869 27.1296 7.35674 27.3109 7.55542 27.4377C7.7541 27.5646 7.98505 27.6316 8.22077 27.631V27.631Z" stroke="#FF9C41" stroke-width="2" stroke-linecap="round" stroke-linejoin="round"/>
<path d="M46.9891 2H6.01091C3.79575 2 2 3.79575 2 6.01091V32.8078C2 35.023 3.79575 36.8187 6.01091 36.8187H46.9891C49.2043 36.8187 51 35.023 51 32.8078V6.01091C51 3.79575 49.2043 2 46.9891 2Z" stroke="#FF9C41" stroke-width="3" stroke-linecap="round" stroke-linejoin="round"/>
</svg>
