<svg width="46" height="51" viewBox="0 0 46 51" fill="none" xmlns="http://www.w3.org/2000/svg">
<path d="M23.3486 25.5C28.0431 25.5 31.8486 21.6944 31.8486 17C31.8486 12.3056 28.0431 8.5 23.3486 8.5C18.6542 8.5 14.8486 12.3056 14.8486 17C14.8486 21.6944 18.6542 25.5 23.3486 25.5Z" stroke="#FF9C41" stroke-width="2"/>
<path d="M31.8485 28.9H32.4469C33.6898 28.9004 34.8897 29.3545 35.8213 30.1772C36.7529 30.9999 37.352 32.1344 37.5061 33.3676L38.1708 38.6784C38.2306 39.1569 38.188 39.6425 38.0457 40.1032C37.9035 40.5639 37.6648 40.9891 37.3457 41.3505C37.0266 41.7119 36.6342 42.0013 36.1947 42.1995C35.7552 42.3977 35.2785 42.5001 34.7963 42.5H11.9007C11.4186 42.5001 10.9419 42.3977 10.5024 42.1995C10.0629 42.0013 9.67051 41.7119 9.35138 41.3505C9.03224 40.9891 8.79363 40.5639 8.65137 40.1032C8.50911 39.6425 8.46645 39.1569 8.52624 38.6784L9.18924 33.3676C9.34342 32.1338 9.94305 30.9988 10.8754 30.1761C11.8077 29.3533 13.0084 28.8995 14.2518 28.9H14.8485" stroke="#FF9C41" stroke-width="2" stroke-linecap="round" stroke-linejoin="round"/>
<path d="M-4.87655e-07 39.8438L-6.9665e-08 49.4063C-3.12099e-08 50.286 0.822528 51 1.836 51L12.852 51C13.8655 51 14.688 50.286 14.688 49.4062C14.688 48.5265 13.8655 47.8125 12.852 47.8125L3.672 47.8125L3.672 39.8438C3.672 38.964 2.84947 38.25 1.836 38.25C0.822528 38.25 -5.2611e-07 38.964 -4.87655e-07 39.8438ZM31.212 1.59375C31.212 2.4735 32.0345 3.1875 33.048 3.1875L42.228 3.1875L42.228 11.1563C42.228 12.036 43.0505 12.75 44.064 12.75C45.0775 12.75 45.9 12.036 45.9 11.1563L45.9 1.59375C45.9 0.714003 45.0775 1.8443e-06 44.064 1.8886e-06L33.048 2.37012e-06C32.0345 2.41442e-06 31.212 0.714003 31.212 1.59375ZM42.228 39.8437L42.228 47.8125L33.048 47.8125C32.0345 47.8125 31.212 48.5265 31.212 49.4062C31.212 50.286 32.0345 51 33.048 51L44.064 51C45.0775 51 45.9 50.286 45.9 49.4062L45.9 39.8437C45.9 38.964 45.0775 38.25 44.064 38.25C43.0505 38.25 42.228 38.964 42.228 39.8437ZM-2.15962e-06 1.59375L-1.74163e-06 11.1563C-1.70317e-06 12.036 0.822526 12.75 1.836 12.75C2.84947 12.75 3.672 12.036 3.672 11.1563L3.672 3.1875L12.852 3.1875C13.8655 3.1875 14.688 2.4735 14.688 1.59375C14.688 0.714004 13.8655 3.20862e-06 12.852 3.25292e-06L1.836 3.73444e-06C0.822526 3.77874e-06 -2.19807e-06 0.714005 -2.15962e-06 1.59375Z" fill="#FF9C41"/>
</svg>
